<svg width="452" height="48" viewBox="0 0 452 48" fill="none" xmlns="http://www.w3.org/2000/svg">
<g clip-path="url(#clip0_2802_2468)">
<path d="M230.914 1.11368e-05C230.914 1.11368e-05 234.774 2.37683 234.765 2.37683C234.226 3.50623 233.821 4.51764 233.459 6.02633C233.316 6.62475 232.498 10.1141 233.594 10.1394C234.116 10.1478 234.403 8.87514 234.572 8.50429C235.423 6.60789 236.645 5.20877 238.221 4.26479C238.246 4.28165 241.491 6.21176 241.483 6.22019C240.16 7.43388 238.929 8.656 237.96 10.3333C237.715 10.7547 237.033 11.7408 237.631 12.0948C238.154 12.3982 238.904 11.5301 239.325 11.1845C241.196 9.64212 244.736 7.53502 247.357 9.61684C244.037 11.5132 240.851 13.3675 237.631 15.2386C235.077 16.7136 232.153 17.8093 232.153 22.6725V37.3211C231.352 37.793 230.517 37.7593 229.607 37.2368V22.6725C229.607 17.8008 226.337 16.4354 224.129 15.1627C220.875 13.2832 217.538 11.4711 214.47 9.54941C217.226 7.53502 220.614 9.62527 222.435 11.1845C222.856 11.5469 223.513 12.4235 224.061 12.0948C224.677 11.7324 223.969 10.8137 223.741 10.3923C222.982 9.06899 222.384 8.38629 221.457 7.45916C221.027 7.02931 220.53 6.61632 220.277 6.15276C220.294 6.17804 223.615 4.34065 223.606 4.32379C225.157 5.30149 226.329 6.72589 227.129 8.56329C227.315 8.98471 227.61 10.1984 228.174 10.131C228.688 10.072 228.688 8.93414 228.629 8.10815C228.461 5.76505 227.601 3.95294 226.935 2.30097C226.935 2.30097 230.88 -0.0168457 230.914 -0.0168457" fill="#00215B"/>
<path d="M213.231 11.2521C213.29 11.2352 213.29 11.2774 213.299 11.3111C216.434 13.0979 219.949 15.1039 223.278 17.0508C225.461 18.332 227.391 19.0062 227.585 22.209C227.846 26.4232 227.391 31.5983 227.585 36.1075C225.848 35.2984 224.955 33.3177 225.107 30.8229C225.174 29.7356 225.638 28.6821 225.36 27.6959C224.306 27.5021 223.741 29.0445 223.404 29.8536C222.974 30.865 222.671 32.0871 222.486 33.1828C222.486 33.2418 219.595 31.5393 219.552 31.4803C219.645 30.098 219.982 29.095 220.471 28.1511C220.943 27.2492 221.828 26.5918 222.039 25.4708C221.449 25.0157 220.716 25.5635 220.277 25.867C218.861 26.8531 217.53 28.3196 216.628 29.7777C216.602 29.7609 213.29 27.7971 213.231 27.8224C213.29 27.7971 213.29 23.8104 213.231 23.8357C215.22 23.6924 217.083 23.2373 218.583 22.4703C219.013 22.2512 219.78 21.9899 219.628 21.2988C218.743 20.8942 217.605 21.3493 216.493 21.2988C215.22 21.2398 214.091 20.8858 213.231 20.4475V17.0508C214.141 17.3711 215.06 17.6745 216.299 17.8347C217.142 17.9358 219.232 18.2898 219.3 17.4385C219.342 16.8823 218.76 16.8317 218.061 16.5957C215.819 15.8371 213.029 14.3453 213.231 11.2437" fill="#FEC057"/>
<path d="M248.529 11.2519C248.588 11.235 248.588 11.2772 248.597 11.3109C248.571 14.067 246.945 15.2132 244.88 16.1404C244.391 16.3595 242.638 16.7472 242.528 17.1855C242.216 18.3655 244.837 17.9272 245.529 17.8429C246.784 17.6912 247.678 17.3793 248.597 17.0591V20.4557C247.678 20.9277 246.397 21.2986 245.006 21.307C243.995 21.307 242.882 20.8519 242.14 21.3744C242.334 22.2425 243.405 22.6218 244.231 22.9337C245.512 23.4225 246.911 23.7175 248.605 23.8439V27.7632C248.605 27.7632 245.335 29.7776 245.284 29.786C244.618 28.8589 243.826 27.8643 242.933 27.0467C242.124 26.3135 241.146 25.2009 239.797 25.4201C239.873 26.5158 240.775 27.0889 241.23 27.898C241.795 28.901 242.14 29.9798 242.275 31.4885C242.284 31.4885 239.384 33.0899 239.342 33.1152C239.072 32.0111 238.895 31.025 238.432 29.9208C238.23 29.4488 237.479 27.4345 236.67 27.6367C235.945 27.8137 236.729 30.3928 236.738 31.2862C236.763 33.8485 235.844 35.1633 234.327 36.1157C234.454 31.3958 233.931 26.482 234.26 21.956C234.487 18.7869 236.915 18.0452 239.157 16.7388C242.115 15.011 245.461 13.0556 248.42 11.3867C248.436 11.3109 248.546 11.3446 248.546 11.2603" fill="#FEC057"/>
<path d="M173.415 15.07C172.682 16.9495 171.982 18.8375 171.325 20.6328H175.337L173.415 15.07ZM175.615 27.4935V26.6085C177.208 26.4062 177.284 26.2461 177.022 25.4538C176.719 24.5436 176.264 23.3046 175.75 21.897H170.878C170.507 22.9253 170.162 23.8946 169.858 24.8638C169.369 26.2545 169.504 26.4315 171.223 26.6001L171.333 27.5019H165.956V26.6169C167.498 26.3978 167.802 26.2882 168.619 24.2401L173.533 11.7661L174.426 11.5048C175.935 15.6769 177.52 20.1692 179.037 24.2823C179.778 26.2882 180.056 26.4568 181.54 26.5917L181.649 27.4935H175.615ZM167.144 12.7775C165.627 12.8786 165.172 13.1905 165.062 14.0755C164.986 14.716 164.944 15.7274 164.944 17.8935V19.8321C164.944 22.6303 164.514 24.6868 163.115 26.1618C161.994 27.3334 160.385 27.8391 158.8 27.8391C157.418 27.8391 156.01 27.4935 154.94 26.6759C153.482 25.555 152.807 23.7344 152.807 20.9531V15.0616C152.807 12.9966 152.664 12.9545 150.86 12.7943L150.759 11.8925H157.123V12.7859C155.21 12.9039 155.066 12.9882 155.066 15.0616V20.4305C155.066 24.2064 156.558 26.2967 159.39 26.2967C162.677 26.2967 163.747 23.5827 163.747 19.6804V17.9104C163.747 15.7443 163.68 14.7497 163.587 14.0249C163.452 13.1989 163.048 12.9208 161.404 12.8028L161.295 11.9009H167.161V12.7943L167.144 12.7775ZM136.389 19.1915C136.389 23.608 138.799 26.7602 142.036 26.7602C144.581 26.7602 146.908 24.6363 146.908 20.1439C146.908 15.188 144.337 12.6258 141.328 12.6258C138.757 12.6258 136.38 14.8172 136.38 19.1999M149.554 19.5118C149.554 24.6868 145.93 27.8644 141.539 27.8644C137.147 27.8644 133.734 24.4761 133.734 19.8658C133.734 15.5589 136.76 11.5385 141.8 11.5385C145.888 11.5385 149.554 14.7076 149.554 19.5118ZM130.7 15.719C130.489 14.6654 130.346 14.2356 130.025 13.7552C129.697 13.1568 129.233 12.9545 127.429 12.9545H125.634C125.01 12.9545 125.002 12.9545 125.002 13.5698V19.0819H127.32C128.407 19.0819 128.921 19.0229 129.216 18.8038C129.503 18.5931 129.596 18.2222 129.756 17.4468L130.658 17.3541V22.133H129.773C129.596 21.2228 129.503 20.7929 129.216 20.5569C128.921 20.3209 128.407 20.2451 127.32 20.2451H125.002V24.4003C125.002 26.3641 125.128 26.4652 127.227 26.6001L127.337 27.5019H120.661V26.6085C122.6 26.4652 122.743 26.381 122.743 24.4003V14.9857C122.743 12.9882 122.6 12.9292 120.838 12.7859L120.729 11.8841H131.374C131.374 12.8533 131.492 14.3536 131.61 15.4661L130.691 15.7106L130.7 15.719ZM100.72 15.0784C99.9865 16.958 99.2869 18.8459 98.6295 20.6412H102.641L100.72 15.0784ZM102.928 27.5019V26.6169C104.521 26.4147 104.597 26.2545 104.327 25.4623C104.024 24.552 103.56 23.313 103.054 21.9055H98.1828C97.8119 22.9337 97.4664 23.903 97.1714 24.8723C96.6825 26.263 96.8174 26.44 98.5368 26.6085L98.6464 27.5104H93.269V26.6254C94.8114 26.4062 95.1148 26.2967 95.9324 24.2486L100.846 11.7745L101.74 11.5132C103.248 15.6853 104.833 20.1776 106.342 24.2907C107.092 26.2967 107.361 26.4652 108.845 26.6001L108.954 27.5019H102.92H102.928ZM92.089 23.5827C91.9289 24.434 91.4232 26.6844 91.2125 27.4176L80.264 27.5019V26.6085C82.3036 26.4652 82.4385 26.3472 82.4385 24.4003V14.9436C82.4385 12.9966 82.3205 12.9292 80.4663 12.7859L80.3567 11.8841H86.7707V12.7775C84.849 12.9208 84.6889 12.9882 84.6889 14.9436V24.2823C84.6889 25.5803 84.8153 25.968 85.1693 26.1618C85.6076 26.4062 86.383 26.4568 87.3776 26.4568C88.684 26.4568 89.4341 26.3304 89.9398 25.7657C90.3275 25.3021 90.7658 24.5604 91.1198 23.4816L92.0806 23.5659L92.089 23.5827ZM78.907 23.5827C78.7469 24.434 78.2411 26.6844 78.0304 27.4176L67.0819 27.5019V26.6085C69.1216 26.4652 69.2649 26.3472 69.2649 24.4003V14.9436C69.2649 12.9966 69.1469 12.9292 67.2926 12.7859L67.1831 11.8841H73.5971V12.7775C71.6754 12.9208 71.5153 12.9882 71.5153 14.9436V24.2823C71.5153 25.5803 71.6417 25.968 71.9957 26.1618C72.434 26.4062 73.2094 26.4568 74.2124 26.4568C75.5188 26.4568 76.2689 26.3304 76.7746 25.7657C77.1623 25.3021 77.6006 24.5604 77.9546 23.4816L78.9154 23.5659L78.907 23.5827ZM65.5479 12.7859C64.0393 12.8871 63.5757 13.1989 63.4661 14.0839C63.3903 14.7244 63.3481 15.7359 63.3481 17.902V19.8405C63.3481 22.6387 62.9183 24.6953 61.5192 26.1702C60.3982 27.3418 58.7799 27.8475 57.2038 27.8475C55.8131 27.8475 54.414 27.5019 53.3436 26.6844C51.877 25.5634 51.2112 23.7429 51.2112 20.9615V15.07C51.2112 13.005 51.0679 12.9629 49.2642 12.8028L49.1547 11.9009H55.5181V12.7943C53.6049 12.9123 53.4616 12.9966 53.4616 15.07V20.4389C53.4616 24.2148 54.9534 26.3051 57.7854 26.3051C61.0724 26.3051 62.1429 23.5911 62.1429 19.6888V17.9188C62.1429 15.7527 62.067 14.7582 61.9743 14.0333C61.8479 13.2073 61.4433 12.9292 59.7913 12.8112L59.6818 11.9094H65.5479V12.8028V12.7859ZM36.4193 24.2907C36.4193 26.0017 37.1189 26.4147 38.8046 26.4147C43.1368 26.4147 45.1343 23.1866 45.1343 19.4359C45.1343 17.0338 44.2493 14.9689 42.4035 13.89C41.3668 13.2158 40.0183 12.9376 38.4506 12.9376C37.456 12.9376 36.8745 13.064 36.6722 13.1989C36.4952 13.3253 36.4193 13.5108 36.4193 14.4547V24.2907ZM38.8973 11.9009C41.9146 11.9009 44.1735 12.5162 45.6737 13.9406C46.8537 15.0953 47.6965 16.8568 47.6965 19.1072C47.6965 21.9813 46.5924 24.1221 44.7382 25.5213C42.9345 26.9119 40.5661 27.5104 37.6499 27.5104H31.927V26.6422C34.0172 26.4905 34.1436 26.3978 34.1436 24.4593V14.9773C34.1436 13.0051 34.0004 12.9629 32.2472 12.8281L32.1293 11.9009H38.8973ZM22.1247 24.4424C22.1247 26.086 22.5293 26.4737 23.9705 26.4737C25.8669 26.4484 27.5189 25.4875 27.5189 23.1192C27.5189 20.7508 25.9512 19.7394 23.094 19.7394H22.1247V24.4508V24.4424ZM23.1193 18.7195C25.6731 18.7195 26.6929 17.7165 26.6929 15.8033C26.6929 14.2525 25.8332 12.8955 23.6671 12.8955C23.0771 12.8955 22.5883 12.9882 22.386 13.1146C22.2343 13.2158 22.1331 13.4096 22.1331 14.1935V18.7111H23.1277L23.1193 18.7195ZM30.098 22.8832C30.098 24.5183 29.1877 25.7657 27.7633 26.558C26.5328 27.2322 24.9482 27.5188 23.0687 27.5188H17.7251V26.6254C19.8069 26.4821 19.8996 26.3894 19.8996 24.4677V14.9352C19.8996 13.0303 19.849 12.9461 18.0285 12.8028L17.9189 11.9009H24.1138C25.9007 11.9009 26.9626 12.1791 27.7296 12.7269C28.623 13.3169 29.1034 14.3957 29.1034 15.5167C29.1034 17.5985 27.5526 18.5762 26.2715 19.0145C28.4123 19.4949 30.098 20.5822 30.098 22.8747M7.99025 15.0869C7.24855 16.9664 6.55742 18.8544 5.9 20.6496H9.91193L7.99025 15.0869ZM10.1985 27.5104V26.6254C11.7915 26.4231 11.8673 26.263 11.5976 25.4707C11.2942 24.5604 10.8391 23.3214 10.3249 21.9139H5.4533C5.08245 22.9422 4.73688 23.9114 4.44189 24.8807C3.95304 26.2714 4.07947 26.4484 5.80729 26.6169L5.91686 27.5188H0.573242V26.6338C2.11564 26.4147 2.41907 26.3051 3.22819 24.257L8.14196 11.7829L9.04381 11.5216C10.5525 15.6937 12.1286 20.1861 13.6457 24.2991C14.3874 26.3051 14.6656 26.4737 16.1405 26.6085L16.2501 27.5104H10.2154H10.1985ZM190.053 11.8841C193.07 11.8841 195.337 12.4993 196.829 13.9237C198.009 15.0784 198.852 16.84 198.852 19.0904C198.852 21.9645 197.748 24.1053 195.893 25.5044C194.09 26.9035 191.721 27.4935 188.797 27.4935H183.074V26.6254C185.156 26.4737 185.291 26.381 185.291 24.4424V14.952C185.291 12.9798 185.147 12.9376 183.394 12.8028L183.285 11.8756H190.053V11.8841ZM187.566 24.2738C187.566 25.9848 188.274 26.3978 189.96 26.3978C194.292 26.3978 196.298 23.1697 196.298 19.4191C196.298 17.017 195.413 14.952 193.567 13.8732C192.531 13.1989 191.182 12.9208 189.606 12.9208C188.603 12.9208 188.03 13.0472 187.827 13.1905C187.65 13.3085 187.566 13.5023 187.566 14.4379V24.2738ZM265.032 17.1097L264.147 17.0591C264.315 15.4577 264.417 14.3957 264.476 13.6878C265.302 13.4433 267.704 13.0219 269.364 13.0219C273.511 13.0388 277.607 15.424 277.607 20.1271V23.7681C277.607 25.7741 277.784 25.9174 279.756 26.0522L279.866 26.9457H262.95C262.706 26.1197 262.208 23.844 262.057 23.018L262.958 22.7062C263.38 23.9283 263.801 24.6868 264.231 25.1588C264.754 25.7572 266.094 25.8837 267.392 25.8837H272.44C273.334 25.8837 274.033 25.8331 274.43 25.6055C274.834 25.3864 274.969 24.9903 274.969 23.6923V19.8236C274.969 16.2079 271.985 14.008 269.364 14.008C267.51 14.0249 265.529 14.8593 265.032 17.0928M359.169 15.896C359.169 15.2217 359.101 14.9604 358.975 14.834C358.849 14.7244 358.461 14.5812 357.728 14.5727H357.003C355.646 14.5727 354.584 14.9352 353.724 15.6684C352.578 16.5787 351.92 18.1632 351.92 20.1439C351.92 23.4984 353.665 25.8415 356.581 25.9258H357.256C357.871 25.8921 358.36 25.7825 358.672 25.5971C358.747 25.555 358.806 25.5128 358.865 25.4538C359.076 25.1757 359.169 24.7458 359.169 24.08V15.896ZM380.965 26.9372H361.327H358.528H357.938C355.418 26.9372 353.151 26.4062 351.634 25.2431C350.075 24.0463 349.088 22.2426 349.088 19.7731C349.088 17.8261 349.847 16.3511 350.875 15.3819C352.173 14.1429 354.154 13.6119 356.699 13.6119H363.383V14.4632C361.874 14.5896 361.723 14.6654 361.723 16.3511V23.7513C361.723 25.6224 361.9 25.8415 363.459 25.8752H371.795C372.958 25.8078 373.093 25.5297 373.093 23.7766V12.0105C373.093 10.0045 372.924 9.88653 371.036 9.72639L370.943 8.83298H377.711V9.71797C375.722 9.89496 375.554 10.0045 375.554 12.0105V23.7766C375.554 25.5297 375.689 25.8078 376.86 25.8752H381.749C382.937 25.8078 383.038 25.5297 383.038 23.7766V12.0105C383.038 10.0045 382.861 9.88653 380.982 9.72639L380.872 8.83298H387.648V9.71797C385.668 9.89496 385.482 10.0045 385.482 12.0105V23.7766C385.482 25.7825 385.659 25.9005 387.547 26.0438L387.648 26.9372H380.973H380.965ZM328.405 7.948C329.189 7.948 329.787 8.55484 329.787 9.33869C329.787 10.072 329.181 10.7041 328.38 10.7041C327.663 10.7041 327.014 10.072 327.014 9.33869C327.014 8.55484 327.663 7.948 328.405 7.948ZM298.611 14.008L292.559 14.2187V13.6372C293.208 13.4855 293.385 13.3338 293.385 13.182V11.6734C293.385 9.77697 294.936 8.83298 296.563 8.83298C296.866 8.83298 297.178 8.8667 297.439 8.91727C297.692 8.95941 297.903 9.00998 298.038 9.04369L298.265 9.09426L298.434 10.8137L297.709 10.9401L297.633 10.6367C297.498 10.0045 296.976 9.76854 296.419 9.76854C295.779 9.76854 295.121 10.3501 295.121 11.5216V13.0725H296.647C297.439 13.0725 297.818 12.9966 298.223 12.3139L298.569 11.7408L299.276 12.0695L299.184 12.3392C298.965 12.9545 298.779 13.5782 298.611 13.9912M283.532 26.0354C285.513 25.8921 285.698 25.7741 285.698 23.7681V12.0021C285.698 9.9961 285.513 9.87811 283.633 9.71797L283.532 8.82455H290.309V9.70954C288.32 9.88653 288.143 9.9961 288.143 12.0105V23.7766C288.143 25.7825 288.32 25.9005 290.199 26.0438L290.309 26.9372H283.532V26.0438V26.0354ZM390.801 26.0354C392.781 25.8921 392.967 25.7741 392.967 23.7681V12.0021C392.967 9.9961 392.79 9.88653 390.91 9.71797L390.809 8.82455H397.577V9.70954C395.596 9.88653 395.411 9.9961 395.411 12.0021V23.7681C395.411 25.7741 395.596 25.8921 397.468 26.0354L397.577 26.9288H390.809V26.0354H390.801ZM438.75 25.5803C439.146 25.8162 439.854 25.85 440.748 25.8584H445.796C447.094 25.8584 448.434 25.732 448.957 25.1335C449.378 24.6616 449.808 23.903 450.196 22.782L451.157 22.8916C450.988 23.8187 450.482 26.0944 450.263 26.8361L449.083 26.9204H400.392C400.156 26.0944 399.651 23.8187 399.49 22.9927L400.392 22.6809C400.822 23.903 401.244 24.6616 401.673 25.1335C402.188 25.7235 403.528 25.8584 404.826 25.8584H409.874C410.768 25.85 411.459 25.8078 411.863 25.5803C412.268 25.3611 412.403 24.965 412.403 23.667V19.7984C412.403 16.1826 409.419 13.9827 406.798 13.9827C404.952 13.9996 402.963 14.834 402.474 17.0675L401.581 17.017C401.758 15.4156 401.85 14.3536 401.918 13.6456C402.735 13.4012 405.146 12.9798 406.798 12.9798C410.945 12.9966 415.075 15.3819 415.075 20.0849V23.726C415.075 25.4285 415.15 25.7488 416.28 25.85H419.828C421 25.7825 421.135 25.5044 421.135 23.7513V16.7051C421.135 14.6992 420.958 14.5896 419.078 14.421L418.977 13.5276H425.753V14.4126C423.764 14.5812 423.587 14.6992 423.587 16.7051V23.7513C423.587 25.5044 423.722 25.7825 424.894 25.85H434.401C435.53 25.7572 435.606 25.4285 435.606 23.726V20.0849C435.606 15.3819 439.686 12.9966 443.841 12.9798C445.493 12.9798 447.895 13.3928 448.628 13.5445C448.78 14.3536 448.873 15.4156 449.041 16.9074L448.19 17.1687C447.667 14.834 445.687 13.9996 443.849 13.9743C441.22 13.9743 438.253 16.1657 438.253 19.7646L438.236 23.6586C438.236 24.9566 438.362 25.3527 438.775 25.5718M422.483 28.9601C423.259 28.9601 423.865 29.5669 423.865 30.3423C423.865 31.1177 423.259 31.7077 422.466 31.7077C421.75 31.7077 421.101 31.084 421.101 30.3423C421.101 29.5585 421.75 28.9601 422.492 28.9601M330.285 12.5331H329.56C328.203 12.5331 327.132 12.8955 326.281 13.6203C325.143 14.5306 324.478 16.1151 324.478 18.0958C324.478 21.4588 326.222 23.7934 329.138 23.8861H329.956C331.321 23.8861 331.726 23.4731 331.726 22.0403V13.8563C331.726 13.182 331.667 12.9208 331.532 12.7859C331.406 12.6763 331.018 12.5415 330.285 12.5331ZM310.073 16.3427V19.6045C310.09 19.7562 310.099 19.9248 310.099 20.1018V23.7429C310.099 25.496 310.259 25.7994 311.498 25.8668H329.214C330.099 25.8668 330.799 25.8162 331.203 25.5887C331.431 25.4707 331.574 25.2853 331.65 24.9313L331.077 24.906H330.479C327.967 24.906 325.7 24.3834 324.182 23.2119C322.623 22.0235 321.637 20.2113 321.637 17.7418C321.637 15.7949 322.396 14.3199 323.424 13.3506C324.73 12.1201 326.694 11.5891 329.248 11.5891H335.932V12.4403C334.423 12.5668 334.271 12.6426 334.271 14.3283V23.7513C334.271 25.7572 334.448 25.9005 336.421 26.0354L336.53 26.9288H310.04C309.938 27.8222 309.66 29.0275 309.306 29.9967C308.43 32.4157 306.828 34.093 306.264 34.5649C306.019 34.7588 305.8 34.8684 305.547 34.8684C305.143 34.8684 304.553 34.3037 304.553 33.6631C304.553 33.2923 304.763 33.0647 305.168 32.9804C306.011 32.8118 306.592 32.5506 306.887 32.1713C307.14 31.851 307.309 31.3116 307.402 30.4603C307.52 29.5838 307.57 28.4459 307.595 26.9457L306.887 26.9288H306.297C303.786 26.9288 301.518 26.3978 299.993 25.2347C298.434 24.0379 297.456 22.2342 297.456 19.7646C297.456 17.8177 298.215 16.3427 299.243 15.3734C300.541 14.1345 302.513 13.6035 305.067 13.6035H311.751V14.4547C310.242 14.5812 310.09 14.657 310.09 16.3511M306.104 14.5643H305.37C304.013 14.5643 302.943 14.9267 302.1 15.66C300.954 16.5703 300.296 18.1548 300.296 20.1355C300.296 23.4984 302.041 25.8331 304.949 25.9174H305.766C307.123 25.9258 307.536 25.5044 307.536 24.0716V15.8876C307.536 15.2133 307.469 14.952 307.342 14.8256C307.216 14.716 306.828 14.5727 306.104 14.5643Z" fill="#00215B"/>
<path d="M243.101 41.8977C243.101 41.7291 243.228 41.6027 243.396 41.6027C243.548 41.6027 243.674 41.7291 243.674 41.8977C243.674 42.0578 243.548 42.1842 243.396 42.1842C243.228 42.1842 243.101 42.0494 243.101 41.8977ZM246.886 47.1317H241.449V46.8199H243.388C244.315 46.8199 244.88 46.0107 244.88 44.9319C244.88 43.853 244.315 43.0439 243.388 43.0439C242.461 43.0439 241.862 43.8615 241.862 44.9319V45.0077H241.449V44.9319C241.449 43.5243 242.326 42.7405 243.388 42.7405C244.45 42.7405 245.293 43.5243 245.293 44.9319C245.293 45.8253 244.947 46.4659 244.441 46.8199H246.734L246.877 47.1317H246.886Z" fill="#00215B"/>
<path d="M246.684 46.8199L246.827 47.1318H248.42L248.268 46.8199H246.684Z" fill="#00215B"/>
<path d="M249.043 41.8977C249.043 41.7375 249.169 41.6027 249.321 41.6027C249.489 41.6027 249.616 41.7459 249.616 41.8977C249.616 42.0494 249.489 42.1842 249.321 42.1842C249.169 42.1842 249.043 42.0494 249.043 41.8977ZM250.914 46.8199L251.049 47.1317H250.981C250.265 47.1317 249.827 46.626 249.591 45.9012C249.54 45.7157 249.506 45.9012 249.506 45.9012C249.414 46.685 249.102 47.1317 248.419 47.1317H248.343L248.191 46.8199H248.267C249.068 46.8199 249.119 45.9517 249.119 45.4039V43.0186H249.523V44.9825C249.523 45.9264 250.004 46.8199 250.838 46.8199H250.905H250.914Z" fill="#00215B"/>
<path d="M250.838 46.8199L250.981 47.1318H252.566L252.414 46.8199H250.838Z" fill="#00215B"/>
<path d="M252.355 46.8199L252.499 47.1318H254.092L253.94 46.8199H252.355Z" fill="#00215B"/>
<path d="M257.118 45.3534C257.118 44.5105 256.688 43.8952 255.98 43.8952C255.273 43.8952 254.834 44.5274 254.834 45.3534C254.834 46.1793 255.273 46.8199 255.98 46.8199C256.688 46.8199 257.118 46.1878 257.118 45.3534ZM257.523 45.3534C257.523 46.4912 256.832 47.1318 255.98 47.1318H254.025L253.882 46.8199H255.045C254.666 46.5249 254.421 46.0361 254.421 45.3534C254.421 44.2071 255.129 43.5665 255.98 43.5665C256.832 43.5665 257.523 44.2071 257.523 45.3534Z" fill="#00215B"/>
<path d="M207.137 47.57C206.522 47.57 206.151 47.393 205.898 47.2834V46.9463C206.168 47.0727 206.59 47.2413 207.129 47.2413C207.778 47.2413 208.14 46.8536 208.149 46.2636C208.166 45.3617 206.935 45.1763 206.295 44.4683C206.109 44.2576 205.966 44.03 205.966 43.6423C205.966 42.9343 206.429 42.3528 207.298 42.3528C207.829 42.3528 208.199 42.4539 208.435 42.5298V42.8922C208.191 42.7995 207.829 42.6899 207.331 42.6899C206.64 42.6899 206.362 43.1451 206.354 43.6339C206.337 44.5189 207.542 44.7043 208.191 45.387C208.393 45.5977 208.52 45.8253 208.52 46.2383C208.52 47.0053 207.989 47.5784 207.146 47.5784" fill="#00215B"/>
<path d="M209.262 47.4773L209.329 42.454H209.708C209.683 43.6255 209.666 45.4629 209.633 47.4773H209.262Z" fill="#00215B"/>
<path d="M213.813 47.4773L210.989 43.1367C210.879 42.9765 210.854 42.9597 210.854 43.1367L210.795 47.4773H210.458L210.525 42.454H210.955L213.754 46.7693C213.888 46.9632 213.922 46.98 213.922 46.7525L213.981 42.454H214.318L214.251 47.4773H213.804H213.813Z" fill="#00215B"/>
<path d="M217.344 42.6478C216.088 42.6478 215.33 43.6676 215.305 44.9572C215.288 46.1203 215.852 47.2328 217.125 47.2328C217.606 47.2328 218.027 47.1317 218.457 46.7861V47.1064C218.145 47.3761 217.656 47.5616 217.058 47.5616C215.895 47.5616 214.9 46.6344 214.925 44.9487C214.942 43.2546 216.055 42.3359 217.285 42.3359C217.85 42.3359 218.229 42.4539 218.617 42.6141V42.9681C218.212 42.7236 217.858 42.6478 217.353 42.6478" fill="#00215B"/>
<path d="M219.24 47.4772L219.299 42.4539H221.861V42.7489H219.653L219.62 44.7295H221.735L221.727 45.033H219.62L219.594 47.1653H221.802L221.794 47.4772H219.24Z" fill="#00215B"/>
<path d="M226.927 47.4773L226.969 43.086C226.969 43.0102 226.969 43.0186 226.91 43.0692L225.924 44.1733V43.7772L227.045 42.5466H227.365L227.306 47.4688H226.927V47.4773Z" fill="#00215B"/>
<path d="M229.986 42.7911C229.363 42.7911 229.017 43.3052 229 43.9963C228.992 44.7465 229.287 45.2016 229.902 45.2016C230.517 45.2016 230.888 44.7296 230.897 44.0385C230.905 43.3979 230.61 42.7826 229.986 42.7826M229.379 47.5616C229.16 47.5616 228.95 47.5447 228.798 47.4773V47.1738C228.933 47.2581 229.152 47.275 229.354 47.275C230.458 47.275 230.897 45.6652 230.913 44.7633C230.93 44.5105 230.905 44.5695 230.821 44.7549C230.661 45.1595 230.315 45.4123 229.835 45.4123C229.32 45.4123 228.638 45.1257 228.655 44.0132C228.671 43.1451 229.169 42.5298 229.995 42.5298C230.635 42.5298 231.031 42.9175 231.183 43.4822C231.284 43.8615 231.284 44.2745 231.276 44.7127C231.259 45.6989 230.753 47.5616 229.379 47.5616Z" fill="#00215B"/>
<path d="M233.956 43.0439C233.956 42.9344 233.914 43.0271 233.897 43.0439L232.152 45.9349C232.085 46.0444 232.102 46.0276 232.194 46.0276H233.905L233.948 43.0439H233.956ZM234.276 46.3141V47.4773H233.889L233.905 46.3141H231.832V45.977L233.956 42.5298H234.327L234.285 46.0276H234.917V46.3141H234.276Z" fill="#00215B"/>
<path d="M236.459 42.7911C235.802 42.7911 235.541 43.2883 235.541 43.7688C235.541 44.3335 235.802 44.7802 236.426 44.7802C237.049 44.7802 237.336 44.3419 237.344 43.7856C237.344 43.3136 237.142 42.7911 236.468 42.7911M236.426 45.033C235.743 45.033 235.347 45.4544 235.338 46.1793C235.338 46.9463 235.878 47.3087 236.392 47.3087C236.906 47.3087 237.462 47.0137 237.462 46.1793C237.462 45.446 237.092 45.033 236.417 45.033M236.375 47.57C235.777 47.57 234.976 47.157 234.984 46.1624C234.984 45.3365 235.574 44.9487 235.912 44.9066C235.524 44.7886 235.195 44.3756 235.204 43.7603C235.204 42.9428 235.777 42.5298 236.468 42.5298C237.159 42.5298 237.707 42.9006 237.69 43.7603C237.69 44.3756 237.311 44.7802 236.915 44.9066C237.294 44.9487 237.825 45.3617 237.825 46.1624C237.825 47.1991 236.965 47.57 236.375 47.57Z" fill="#00215B"/>
<path d="M0.53125 37.5823V38.2228H197.428L200.192 37.5739L0.53125 37.5823Z" fill="#FEC057"/>
<path d="M0.530991 38.7538H0V37.0428H200.192L200.31 38.0964L197.427 38.7538H0.530991Z" fill="#FEC057"/>
<path d="M264.433 38.2228H450.87V37.5823L261.82 37.5739L264.433 38.2228Z" fill="#FEC057"/>
<path d="M451.409 38.7538L264.307 38.737L261.686 38.0964L261.82 37.0428H451.409V38.7538Z" fill="#FEC057"/>
</g>
<defs>
<clipPath id="clip0_2802_2468">
<rect width="451.409" height="47.57" fill="white"/>
</clipPath>
</defs>
</svg>
